<?xml version="1.0" encoding="utf-8"?>
<!-- Generator: Adobe Illustrator 22.0.1, SVG Export Plug-In . SVG Version: 6.00 Build 0)  -->
<svg version="1.1" id="Layer_1" xmlns="http://www.w3.org/2000/svg" xmlns:xlink="http://www.w3.org/1999/xlink" x="0px" y="0px"
	 viewBox="0 0 112 29" style="enable-background:new 0 0 112 29;" xml:space="preserve">
<style type="text/css">
	.st0{clip-path:url(#SVGID_2_);fill:#FFFFFF;}
</style>
<g>
	<polyline points="35.2,27.6 32.7,27.6 32.7,27.2 33.4,27.2 33.4,22.1 32.7,22.1 32.7,21.8 35.2,21.8 35.2,22.1 34.5,22.1 
		34.5,27.2 35.2,27.2 35.2,27.6 	"/>
	<polyline points="44.8,27.7 44.2,27.7 41.1,23.4 41.1,27.2 41.8,27.2 41.8,27.6 39.8,27.6 39.8,27.2 40.5,27.2 40.5,22.6 
		40.2,22.1 39.6,22.1 39.6,21.8 41.4,21.8 44.2,25.8 44.2,22.1 43.5,22.1 43.5,21.8 45.5,21.8 45.5,22.1 44.8,22.1 44.8,27.7 	"/>
	<path d="M50.8,27.7h-0.5v-1.6h0.5v0.7c0.4,0.3,0.7,0.4,1.1,0.4c0.5,0,0.9-0.3,0.9-0.8c0-0.4-0.3-0.7-1.1-1.2
		c-0.9-0.5-1-0.6-1.2-0.9c-0.2-0.3-0.3-0.6-0.3-1c0-1,0.7-1.6,1.8-1.6c0.3,0,0.6,0.1,1,0.2v-0.3h0.5v1.5H53v-0.6
		c-0.4-0.2-0.6-0.3-0.9-0.3c-0.5,0-0.8,0.3-0.8,0.7c0,0.4,0.2,0.6,1.1,1.1c0.4,0.3,0.7,0.4,0.8,0.5c0.2,0.1,0.4,0.3,0.5,0.6
		c0.2,0.3,0.2,0.6,0.2,0.9c0,1-0.7,1.7-1.8,1.7c-0.5,0-0.9-0.1-1.3-0.3V27.7"/>
	<polyline points="62.4,27.6 59.5,27.6 59.5,27.2 60.4,27.2 60.4,22.3 58.9,22.3 58.9,23 58.4,23 58.4,21.5 58.9,21.5 58.9,21.8 
		63,21.8 63,21.5 63.5,21.5 63.5,23 63,23 63,22.3 61.5,22.3 61.5,27.2 62.4,27.2 62.4,27.6 	"/>
	<polyline points="69.8,27.6 67.3,27.6 67.3,27.2 68,27.2 68,22.1 67.3,22.1 67.3,21.8 69.8,21.8 69.8,22.1 69.1,22.1 69.1,27.2 
		69.8,27.2 69.8,27.6 	"/>
	<polyline points="77.4,27.6 74.6,27.6 74.6,27.2 75.5,27.2 75.5,22.3 73.9,22.3 73.9,23 73.4,23 73.4,21.5 73.9,21.5 73.9,21.8 
		78.1,21.8 78.1,21.5 78.6,21.5 78.6,23 78.1,23 78.1,22.3 76.6,22.3 76.6,27.2 77.4,27.2 77.4,27.6 	"/>
	<path d="M89,22.1h-0.7v3.3c0,1-0.3,1.6-1.1,2c-0.4,0.2-0.8,0.3-1.3,0.3c-1.4,0-2.4-0.8-2.4-2v-3.6h-0.7v-0.4h2.5v0.4h-0.7v3.3
		c0,0.9,0.2,1.3,0.6,1.5c0.2,0.1,0.5,0.2,0.7,0.2c1.1,0,1.7-0.6,1.7-1.7v-3.3H87v-0.4h2V22.1"/>
	<polyline points="97.1,27.6 94.3,27.6 94.3,27.2 95.1,27.2 95.1,22.3 93.6,22.3 93.6,23 93.1,23 93.1,21.5 93.6,21.5 93.6,21.8 
		97.8,21.8 97.8,21.5 98.3,21.5 98.3,23 97.8,23 97.8,22.3 96.3,22.3 96.3,27.2 97.1,27.2 97.1,27.6 	"/>
	<polyline points="106.8,27.6 102.6,27.6 102.6,27.2 103.2,27.2 103.2,22.1 102.6,22.1 102.6,21.8 106.2,21.8 106.2,21.5 
		106.7,21.5 106.7,22.9 106.2,22.9 106.2,22.3 104.4,22.3 104.4,24.4 105.8,24.4 105.8,23.8 106.3,23.8 106.3,25.5 105.8,25.5 
		105.8,24.9 104.4,24.9 104.4,27.1 106.3,27.1 106.3,26.4 106.8,26.4 106.8,27.6 	"/>
	<path d="M31.7,17.4v-0.9h1.8V2.1h-1.8V1.2h7.4c2.2,0,4,1.8,4,4c0,1.8-1.6,3.5-3.6,3.6c1,0.1,1.4,0.2,2,0.5c1.5,0.7,2.4,2.1,2.4,3.8
		c0,2.4-1.9,4.2-4.4,4.2H31.7L31.7,17.4z M35.7,8.4h2.5c1.6,0,2.7-1.3,2.7-3.1c0-1.7-1.1-3-2.5-3h-2.7V8.4L35.7,8.4z M35.7,16.3h2.7
		c2.1,0,3.3-1.2,3.3-3.2c0-2-1.4-3.5-3.3-3.5h-2.7V16.3"/>
	<path d="M60.6,17.4h-2.1c-1.4,0-1.7-0.1-2.5-1.4l-3.6-5.8h-1.9v6.3h1.8v0.9h-5.8v-0.9h1.8V2.1h-1.8V1.2h6.8c2.4,0,3.7,0.7,4.5,2.2
		c0.3,0.7,0.5,1.4,0.5,2.2c0,2.4-1.3,3.9-3.7,4.2l3.5,5.4c0.6,0.9,1,1.2,1.6,1.2h1V17.4L60.6,17.4z M50.4,9h2.4
		C54.7,9,56,7.6,56,5.6c0-2.1-1.2-3.3-3.2-3.3h-2.3V9"/>
	<path d="M61.3,9.3c0-4.6,3.6-8.4,7.9-8.4c4.3,0,7.8,3.8,7.8,8.4c0,4.6-3.6,8.4-7.8,8.4C64.9,17.7,61.3,13.9,61.3,9.3L61.3,9.3z
		 M63.7,9.3c0,4.1,2.3,7.1,5.5,7.1c3.1,0,5.4-3,5.4-7.1c0-4.1-2.3-7.1-5.4-7.1C66,2.2,63.7,5.1,63.7,9.3"/>
	<path d="M92.9,17.4h-5.6v-0.9h2l-1.7-4.4l-6.3,0l-1.8,4.4h2v0.9h-4.7v-0.9h1.3l6.4-15.8h0.9l6.1,15.8h1.4V17.4L92.9,17.4z
		 M87.1,10.9L84.5,4l-2.8,6.9H87.1"/>
	<path d="M94.4,17.4v-0.9h1.8V2.1h-1.8V1.2h7.2c4.4,0,8,3.6,8,8.1c0,4.5-3.5,8.1-8,8.1H94.4L94.4,17.4z M98.4,16.2h2.9
		c3.4,0,5.9-3,5.9-6.9c0-3.8-2.6-6.8-5.8-6.8h-3V16.2"/>
	<g>
		<defs>
			<polyline id="SVGID_1_" points="2.3,1.2 26.8,1.2 26.8,27.6 2.3,27.6 2.3,1.2 			"/>
		</defs>
		<use xlink:href="#SVGID_1_"  style="overflow:visible;fill:#006DB6;"/>
		<clipPath id="SVGID_2_">
			<use xlink:href="#SVGID_1_"  style="overflow:visible;"/>
		</clipPath>
		<path class="st0" d="M82.9,20.9c-1.2-1.3-2.5-2.5-3.8-3.6c1.1-0.9,2.1-1.9,3.1-2.9c0.2,0.2,0.5,0.5,0.7,0.7
			c-0.2-0.2-0.5-0.5-0.7-0.7c0.1-0.1,0.2-0.2,0.3-0.3c-0.1,0.1-0.2,0.2-0.3,0.3c-1-1-2-2-3.1-2.9c1.2-1,2.3-2.1,3.4-3.2
			c-1.1,1.1-2.3,2.1-3.6,3c-1.1-1-2.2-1.9-3.4-2.7c2.5-1.9,4.8-3.9,7-6.1c-2.3,2.1-4.8,4.1-7.4,5.8C65.7,1.4,54.4-2.6,42.2-2.6
			C30-2.6,18.7,1.4,9.3,8.2c-2.7-1.8-5.3-3.8-7.6-6c2.2,2.3,4.6,4.4,7.2,6.3c-1.2,0.9-2.3,1.8-3.4,2.7c-1.3-1-2.6-2.1-3.8-3.2
			c1.1,1.2,2.3,2.3,3.6,3.4c-1.1,0.9-2.1,1.9-3.1,2.9c-0.2-0.2-0.3-0.3-0.5-0.5C1.9,14,2,14.2,2.2,14.4c-0.2,0.2-0.3,0.3-0.5,0.5
			c0.2-0.2,0.4-0.3,0.5-0.5c1,1,2,2,3.1,2.9c-1.2,1.1-2.4,2.2-3.6,3.4c1.2-1.1,2.5-2.2,3.8-3.2c1.1,1,2.2,1.9,3.4,2.8
			c-2.6,1.9-5,4-7.2,6.3c2.4-2.2,4.9-4.2,7.7-6c9.3,6.8,20.6,10.8,32.8,10.8c12.2,0,23.5-4,32.8-10.8c2.8,1.8,5.5,3.9,7.9,6.2
			c-2.3-2.4-4.8-4.6-7.4-6.6c1.2-0.9,2.3-1.8,3.4-2.8C80.3,18.6,81.6,19.7,82.9,20.9z M82.1,14.3c-1,1-2.1,1.9-3.2,2.8
			c-1.1-1-2.2-1.9-3.4-2.7c1.2-0.9,2.3-1.8,3.4-2.8C80,12.5,81.1,13.4,82.1,14.3z M78.7,11.4c-1.2,0.9-2.4,1.8-3.6,2.6
			c-1.2-0.9-2.5-1.8-3.8-2.6c1.3-0.8,2.6-1.7,3.9-2.6C76.3,9.7,77.5,10.5,78.7,11.4z M42.2,9.2c-7.9,0-15.3,1.6-22.2,4.6
			c-1.7-0.7-3.4-1.5-5.1-2.3c8.1-4.1,17.4-6.4,27.3-6.4c9.8,0,19.1,2.3,27.2,6.4c-1.6,0.8-3.3,1.6-5.1,2.3
			C57.5,10.8,50.1,9.2,42.2,9.2z M62.6,14.4C56.3,16.7,49.4,18,42.2,18c-7.2,0-14.1-1.2-20.4-3.5c6.4-2.3,13.2-3.5,20.4-3.5
			C49.4,10.9,56.3,12.2,62.6,14.4z M18.6,14.4c-1.6,0.7-3.1,1.5-4.6,2.4c-1.4-0.8-2.8-1.6-4.2-2.4c1.3-0.9,2.7-1.7,4.2-2.4
			C15.5,12.9,17.1,13.7,18.6,14.4z M20,15.1c6.8,3,14.3,4.6,22.1,4.6c7.9,0,15.3-1.7,22.2-4.6c1.7,0.7,3.4,1.4,5.1,2.3
			c-8.1,4.1-17.4,6.5-27.2,6.5c-9.8,0-19.1-2.3-27.2-6.5C16.6,16.5,18.3,15.8,20,15.1z M65.8,14.4c1.6-0.7,3.1-1.6,4.6-2.4
			c1.4,0.8,2.8,1.6,4.2,2.4c-1.3,0.9-2.7,1.7-4.2,2.4C68.9,16,67.3,15.1,65.8,14.4z M42.2-0.8c12,0,23.1,3.4,32.3,9.3
			c-1.3,0.9-2.7,1.7-4.2,2.4c-8.3-4.9-17.9-7.7-28.2-7.7C32,3.3,22.4,6.1,14,11c-1.4-0.8-2.8-1.6-4.2-2.4
			C19.1,2.6,30.2-0.8,42.2-0.8z M9.3,8.9c1.3,0.9,2.5,1.8,3.9,2.6c-1.3,0.8-2.6,1.7-3.8,2.6c-1.2-0.8-2.5-1.7-3.6-2.6
			C6.9,10.6,8.1,9.7,9.3,8.9z M2.3,14.4c1-0.9,2.1-1.9,3.2-2.7c1.1,1,2.2,1.9,3.4,2.8c-1.2,0.9-2.3,1.8-3.4,2.7
			C4.4,16.2,3.3,15.3,2.3,14.4z M5.7,17.3c1.2-0.9,2.4-1.7,3.6-2.6c1.3,0.9,2.5,1.8,3.9,2.6c-1.3,0.8-2.6,1.7-3.9,2.6
			C8.1,19.1,6.9,18.2,5.7,17.3z M42.2,29.6c-12,0-23.1-3.5-32.3-9.4c1.3-0.9,2.7-1.7,4.2-2.4c8.3,4.9,17.9,7.7,28.1,7.7
			c10.2,0,19.8-2.8,28.1-7.7c1.4,0.8,2.8,1.6,4.2,2.4C65.3,26.2,54.2,29.6,42.2,29.6z M75,19.9c-1.2-0.9-2.5-1.8-3.9-2.6
			c1.3-0.8,2.6-1.7,3.9-2.6c1.2,0.8,2.5,1.7,3.6,2.6C77.5,18.2,76.3,19.1,75,19.9z"/>
	</g>
</g>
</svg>
