<?xml version="1.0" encoding="UTF-8"?><svg id="a" xmlns="http://www.w3.org/2000/svg" viewBox="0 0 137.3848 66.1577"><g id="b"><path d="M2.1089,63.0506c.834,.7808,1.9521,1.313,3.0166,1.313,1.3135,0,2.0234-.5854,2.0234-1.4902,0-.9585-.7451-1.2603-1.792-1.7036l-1.5977-.6924c-1.1357-.479-2.3418-1.3843-2.3418-3.0879,0-1.8452,1.6318-3.2651,3.9033-3.2651,1.3486,0,2.6621,.5679,3.5674,1.4731l-1.0469,1.313c-.7451-.6211-1.5264-.9937-2.5205-.9937-1.0996,0-1.8271,.5146-1.8271,1.3662,0,.9053,.8867,1.2422,1.8447,1.6328l1.5801,.6567c1.3662,.5854,2.3418,1.4551,2.3418,3.1406,0,1.8813-1.5615,3.4429-4.1699,3.4429-1.5615,0-3.0879-.6211-4.1875-1.7036l1.2061-1.4019Z" style="fill:#53565a;"/><path d="M14.7935,57.0169c1.1182,0,1.9697,.4438,2.5557,1.0117l-.9756,1.2954c-.4619-.4082-.9229-.6392-1.4736-.6392-1.4014,0-2.3779,1.1538-2.3779,2.9106,0,1.7388,.959,2.8926,2.3252,2.8926,.71,0,1.3135-.355,1.792-.7456l.8516,1.2954c-.8154,.728-1.8633,1.1182-2.8564,1.1182-2.3779,0-4.2061-1.668-4.2061-4.5605,0-2.9106,2.041-4.5786,4.3652-4.5786Z" style="fill:#53565a;"/><path d="M18.773,53.4143h2.04v3.23l-.0703,1.686c.7275-.6924,1.5967-1.3135,2.7861-1.3135,1.8633,0,2.6797,1.2603,2.6797,3.4604v5.4658h-2.041v-5.1997c0-1.4375-.4082-1.9697-1.3662-1.9697-.7637,0-1.2607,.3726-1.9883,1.0825v6.0869h-2.04v-12.5288Z" style="fill:#53565a;"/><path d="M31.9371,57.0169c2.1826,0,4.1523,1.668,4.1523,4.5786,0,2.8926-1.9697,4.5605-4.1523,4.5605-2.165,0-4.1348-1.668-4.1348-4.5605,0-2.9106,1.9697-4.5786,4.1348-4.5786Zm0,7.4712c1.2773,0,2.0586-1.1538,2.0586-2.8926,0-1.7568-.7812-2.9106-2.0586-2.9106s-2.041,1.1538-2.041,2.9106c0,1.7388,.7637,2.8926,2.041,2.8926Z" style="fill:#53565a;"/><path d="M41.3833,57.0169c2.1826,0,4.1523,1.668,4.1523,4.5786,0,2.8926-1.9697,4.5605-4.1523,4.5605-2.165,0-4.1348-1.668-4.1348-4.5605,0-2.9106,1.9697-4.5786,4.1348-4.5786Zm0,7.4712c1.2773,0,2.0586-1.1538,2.0586-2.8926,0-1.7568-.7812-2.9106-2.0586-2.9106s-2.041,1.1538-2.041,2.9106c0,1.7388,.7637,2.8926,2.041,2.8926Z" style="fill:#53565a;"/><path d="M47.2212,53.4143h2.04v10.3994c0,.4966,.2314,.6743,.4443,.6743,.0879,0,.1592,0,.3193-.0356l.2656,1.5264c-.248,.1064-.6035,.1772-1.082,.1772-1.4551,0-1.9873-.9404-1.9873-2.4487v-10.293Z" style="fill:#53565a;"/><path d="M58.259,57.0169c2.1826,0,4.1523,1.668,4.1523,4.5786,0,2.8926-1.9697,4.5605-4.1523,4.5605-2.165,0-4.1348-1.668-4.1348-4.5605,0-2.9106,1.9697-4.5786,4.1348-4.5786Zm0,7.4712c1.2773,0,2.0586-1.1538,2.0586-2.8926,0-1.7568-.7812-2.9106-2.0586-2.9106s-2.041,1.1538-2.041,2.9106c0,1.7388,.7637,2.8926,2.041,2.8926Z" style="fill:#53565a;"/><path d="M68.4367,55.0296c-.3193-.1421-.6572-.2134-.959-.2134-.709,0-1.0996,.4614-1.0996,1.4731v.9404h1.7031v1.6147h-1.7031v7.0986h-2.041v-7.0986h-1.1709v-1.5259l1.1709-.0889v-.9048c0-1.8101,.834-3.1235,2.8926-3.1235,.6211,0,1.207,.1421,1.5967,.3018l-.3896,1.5264Z" style="fill:#53565a;"/><path d="M73.0899,54.3372h2.2715l2.0947,5.7144,.7627,2.2002h.0713l.7451-2.2002,2.0586-5.7144h2.2715v11.606h-1.9346v-5.3062c0-1.0825,.1602-2.6265,.2666-3.6909h-.0713l-.9404,2.644-2.0059,5.2705h-.958l-2.0049-5.2705-.9229-2.644h-.0713c.1064,1.0645,.2666,2.6084,.2666,3.6909v5.3062h-1.8994v-11.606Z" style="fill:#53565a;"/><path d="M89.2637,57.0169c2.3604,0,3.6025,1.7036,3.6025,4.1348,0,.3906-.0361,.7456-.0889,.9585h-5.5371c.1777,1.5791,1.1719,2.4668,2.5732,2.4668,.7451,0,1.3848-.231,2.0234-.6392l.6924,1.2778c-.835,.5503-1.8818,.9404-2.9814,.9404-2.4141,0-4.2949-1.686-4.2949-4.5605,0-2.8394,1.9697-4.5786,4.0107-4.5786Zm1.8281,3.7979c0-1.3843-.5859-2.2183-1.7754-2.2183-1.0293,0-1.916,.7627-2.0938,2.2183h3.8691Z" style="fill:#53565a;"/><path d="M97.9459,57.0186c.9941,0,1.6152,.3726,2.2891,.9585l-.0703-1.4023v-3.1587h2.04v12.5288h-1.6855l-.1416-.9404h-.0713c-.6387,.6387-1.5264,1.1533-2.4668,1.1533-2.1826,0-3.585-1.686-3.585-4.5605,0-2.8394,1.793-4.5786,3.6914-4.5786Zm.3906,7.4531c.6738,0,1.2422-.3013,1.8281-.9756v-4.064c-.6035-.5322-1.1895-.7275-1.7754-.7275-1.1172,0-2.0225,1.0469-2.0225,2.8745,0,1.8813,.71,2.8926,1.9697,2.8926Z" style="fill:#53565a;"/><path d="M104.1773,54.5501c0-.6919,.5322-1.1709,1.2607-1.1709,.7275,0,1.2598,.479,1.2598,1.1709,0,.6743-.5322,1.1538-1.2598,1.1538-.7285,0-1.2607-.4795-1.2607-1.1538Zm.2314,2.6797h2.04v8.7134h-2.04v-8.7134Z" style="fill:#53565a;"/><path d="M112.5039,57.0169c1.1182,0,1.9697,.4438,2.5557,1.0117l-.9756,1.2954c-.4619-.4082-.9229-.6392-1.4736-.6392-1.4014,0-2.3779,1.1538-2.3779,2.9106,0,1.7388,.959,2.8926,2.3252,2.8926,.71,0,1.3135-.355,1.792-.7456l.8516,1.2954c-.8154,.728-1.8633,1.1182-2.8564,1.1182-2.3779,0-4.2061-1.668-4.2061-4.5605,0-2.9106,2.041-4.5786,4.3652-4.5786Z" style="fill:#53565a;"/><path d="M116.251,54.5501c0-.6919,.5322-1.1709,1.2607-1.1709,.7275,0,1.2598,.479,1.2598,1.1709,0,.6743-.5322,1.1538-1.2598,1.1538-.7285,0-1.2607-.4795-1.2607-1.1538Zm.2314,2.6797h2.04v8.7134h-2.04v-8.7134Z" style="fill:#53565a;"/><path d="M120.7246,57.2298h1.6855l.1416,1.1714h.0713c.7812-.7632,1.668-1.3843,2.8574-1.3843,1.8633,0,2.6797,1.2603,2.6797,3.4604v5.4658h-2.041v-5.1997c0-1.4375-.4082-1.9697-1.3662-1.9697-.7637,0-1.2607,.3726-1.9883,1.0825v6.0869h-2.04v-8.7134Z" style="fill:#53565a;"/><path d="M133.7822,57.0169c2.3604,0,3.6025,1.7036,3.6025,4.1348,0,.3906-.0361,.7456-.0889,.9585h-5.5371c.1777,1.5791,1.1719,2.4668,2.5732,2.4668,.7451,0,1.3848-.231,2.0234-.6392l.6924,1.2778c-.835,.5503-1.8818,.9404-2.9814,.9404-2.4141,0-4.2949-1.686-4.2949-4.5605,0-2.8394,1.9697-4.5786,4.0107-4.5786Zm1.8281,3.7979c0-1.3843-.5859-2.2183-1.7754-2.2183-1.0293,0-1.916,.7627-2.0938,2.2183h3.8691Z" style="fill:#53565a;"/></g><rect x="39.4513" y="44.7006" width="97.9328" height="1.5937" style="fill:#c7c7c7;"/><g><g><path d="M130.7528,25.9239h6.467v1.6077h-4.5626v2.7423h3.857v1.6077h-3.857v3.1686h4.7269v1.6077h-6.6313v-10.7341Z" style="fill:#53565a;"/><path d="M115.6283,25.9239h1.9538l3.3477,6.0392,1.0999,2.2826h.0655c-.0816-1.0999-.2459-2.4616-.2459-3.6604v-4.6614h1.8216v10.7341h-1.9526l-3.3491-6.0393-1.0999-2.2825h-.0654c.0828,1.1332,.2471,2.4295,.2471,3.6269v4.6949h-1.8228v-10.7341Z" style="fill:#53565a;"/><path d="M106.642,25.9239h1.9044v10.7341h-1.9044v-10.7341Z" style="fill:#53565a;"/><path d="M97.2296,25.7274c1.2962,0,2.3787,.6388,3.0523,1.3618l-1.0665,1.1828c-.5426-.5426-1.1493-.8875-1.9698-.8875-1.7722,0-3.0204,1.4781-3.0204,3.8904,0,2.4444,1.1494,3.9224,2.9549,3.9224,.9515,0,1.6411-.3943,2.2479-1.0665l1.0678,1.1654c-.8701,1.0009-2.0033,1.5583-3.3491,1.5583-2.741,0-4.8739-1.9699-4.8739-5.5301,0-3.5122,2.1983-5.597,4.9568-5.597Z" style="fill:#53565a;"/><path d="M83.8437,25.9239h1.9044v10.7341h-1.9044v-10.7341Z" style="fill:#53565a;"/><path d="M69.2257,25.9239h2.8734c3.2822,0,5.2186,1.7734,5.2186,5.3176,0,3.5615-1.9364,5.4165-5.1212,5.4165h-2.9709v-10.7341Zm2.7411,9.1905c2.1663,0,3.3985-1.2296,3.3985-3.873,0-2.626-1.2322-3.774-3.3985-3.774h-.8367v7.647h.8367Z" style="fill:#53565a;"/><path d="M56.0366,25.9239h6.467v1.6077h-4.5626v2.7423h3.8568v1.6077h-3.8568v3.1686h4.7269v1.6077h-6.6313v-10.7341Z" style="fill:#53565a;"/><path d="M39.4513,25.9239h2.1009l1.9378,5.2855,.7056,2.034h.0656l.6896-2.034,1.903-5.2855h2.1009v10.7341h-1.7882v-4.9073c0-1.0011,.1471-2.4283,.2459-3.4145h-.0654l-.8701,2.4456-1.8549,4.8753h-.8861l-1.855-4.8753-.8539-2.4456h-.0656c.0989,.9863,.2459,2.4135,.2459,3.4145v4.9073h-1.7561v-10.7341Z" style="fill:#53565a;"/></g><g><path d="M43.8922,20.3911c-1.6718,0-2.9454-.1831-4.2525-.6094l-.1884-.0614v-.9369c0-1.2468-.0267-1.7373-.0534-2.1343l-.0375-.6481,.7605,.0014,.016,.2712c.032,.5813,.2272,1.1534,.5827,1.5542,.5479,.6202,1.8108,.9943,2.9829,.9943,2.4577,0,3.6002-.9302,3.6002-2.9268,0-1.7106-1.057-2.4215-2.5164-3.4078l-.2339-.1604-1.5423-1.0264c-2.1436-1.4206-3.2342-2.5579-3.2342-4.8298,0-1.1119,.4197-4.739,5.8228-4.739,2.2171,0,3.9265,.2914,3.9986,.302l.2325,.0415-.0081,.2285c0,.0067-.0186,.7109-.0186,1.4754,0,.6015-.0107,1.1253,.0107,1.6666l.0213,.4036h-.6548l-.016-.2526c-.0482-.6868-.2487-1.1801-.6255-1.5582-.5198-.5213-1.6692-.7644-2.8866-.7644-2.8626,0-3.1968,1.4728-3.1968,2.5752,0,1.5196,.7792,2.034,2.4804,3.1579l1.9526,1.2936c1.6638,1.1093,3.2314,2.157,3.2314,4.9154,0,4.6696-4.3554,5.1747-6.2277,5.1747Z" style="fill:#8c1515;"/><path d="M56.6926,20.4727c-1.994,0-3.0979-.7123-3.5883-2.3028-.2032-.6333-.2032-1.8803-.2032-2.6274,0-2.0594,.0187-3.7126,.0401-5.6263l.0108-.8981h-1.7013v-.5065l.1657-.0682c.7925-.3273,1.0945-.5505,1.4447-.8205,1.2388-.9608,2.0994-2.5847,2.1128-2.6086l.29-.4918h.5614v2.8974h4.3901v1.5983h-4.3901v6.7677c0,2.0206,.3769,3.1753,2.292,3.1753,.8887,0,1.5729-.3449,1.5783-.3502l.2647-.1363,.2258,.5239-.111,.1256c-.0454,.0508-1.0396,1.3485-3.3824,1.3485Z" style="fill:#8c1515;"/><path d="M65.2376,20.4245c-3.4934,0-3.7634-2.6528-3.7634-3.4667,0-.9569,.2566-2.6475,2.483-3.4667,2.2974-.8446,2.7891-.9422,4.3702-1.4394v-.4089c0-.7658,0-.9529-.1523-1.4273-.3048-.9114-1.1787-1.4833-2.3642-1.4833-1.744,0-2.4589,1.331-2.4642,1.3444l-.139,.2606-.6469-.3848,.0642-.1991c.3154-1.0024,1.581-2.7077,4.3474-2.7077,1.7975,0,2.9681,.5106,3.6938,1.6118,.5399,.8739,.5827,2.0822,.5827,3.345,0,1.1093-.0268,2.3455-.0508,3.3424-.0161,.6842-.0294,1.2776-.0294,1.6385,0,.9114,.1442,1.617,.9033,1.617,.1884,0,.3168-.0401,.4211-.1284l.2084-.1764,.4249,.4839-.1416,.1817c-.6975,.8419-1.3618,1.4353-2.5458,1.4353-1.025,0-1.7347-.4865-1.9753-1.3043-.5693,.5934-1.605,1.3324-3.2261,1.3324Zm3.0898-6.7797c-1.7173,.5159-2.3,.8032-2.8318,1.0718-.7391,.3741-1.1239,1.1332-1.1239,2.0247,0,.6977,.2485,1.867,1.9231,1.867,.5533,0,1.343-.1017,2.0326-.5961v-4.3674Z" style="fill:#8c1515;"/><path d="M74.2264,20.3109v-.6121l.2485-.0186c.2165-.0187,.7617-.1043,1.1427-.5347,.3982-.4437,.4223-1.5435,.4223-3.7393v-3.6832c0-1.585-.0241-2.2639-.254-2.6086-.2633-.3796-.846-.4197-1.156-.4424-.0401-.0014-.0749-.0067-.1069-.0079l-.2459-.0255v-.7378l.2914,.0227c.0508,.0067,.1148,.0067,.1977,.0067,.3982,0,1.3377-.0534,2.3293-.2459,.7577-.1203,1.1988-.3822,1.3592-.4569l.147-.0683,.254,.1511v1.0236c.6509-.4824,1.9578-1.2388,3.7353-1.2388,2.3226,0,3.8408,1.0864,4.2738,3.0564,.123,.4891,.1685,1.6745,.1685,2.3066v3.7608c0,2.1276,.0828,2.7249,.481,3.0977,.2005,.1845,.6254,.3368,.997,.3609l.254,.0187v.6013l-.6388-.0334c-.9248-.0468-1.7213-.0895-2.558-.0895-.9515,0-1.7747,0-2.9241,.1069l-.2993,.0294v-.596l.2325-.0322c.4998-.0775,.8472-.2191,1.0691-.4397,.417-.4182,.4385-1.4086,.4705-2.2651,.0053-.1418,.0107-.2914,.0187-.4464,.0239-.4812,.0239-1.4941,.0239-2.2345,0-.9649,0-1.9619-.1041-2.9469-.1925-1.6664-1.0611-2.4415-2.737-2.4415-1.1494,0-1.8684,.2633-2.4122,.5426v6.7676c0,2.1276,.0869,2.7249,.4851,3.0977,.2031,.1845,.6227,.3368,.9969,.3609l.2526,.0187v.6013l-.6856-.0348c-.8928-.0467-1.6666-.0881-2.479-.0881-.9315,0-1.8056,0-2.959,.1069l-.2912,.0294Z" style="fill:#8c1515;"/><path d="M90.2995,20.3109v-.6254l.2513-.0187c.2191-.016,.7644-.1015,1.1439-.5306,.401-.445,.4196-1.5342,.4196-3.73v-6.3881h-1.6785v-.723l.1683-.0708c.7297-.3008,1.1788-.54,1.5101-.7978,.0027-1.1427,.0375-2.6155,.1925-3.4173,.5104-2.6595,2.2478-4.0093,5.1719-4.0093,1.2535,0,2.451,.4183,3.1459,.9823l.0989,.0802,.0401,.274-1.2804,1.7774-.3074,.0026-.0695-.1603c-.4891-1.0933-1.2-1.5209-2.1703-1.5209-.4036,0-.9569,.1203-1.299,.4638-.5586,.5559-.6522,1.3859-.6522,3.0297v2.4911h2.8707v1.5983h-2.8707v7.1472c0,1.7013,.0561,2.5298,.2779,2.8626,.3609,.5426,1.4568,.5841,1.7801,.5841h.2726v.6855l-.286-.016c-1.4193-.0735-2.4751-.1069-3.2368-.1069-.9569,0-2.0447,0-3.1967,.1069l-.2967,.0294Z" style="fill:#8c1515;"/><path d="M105.1204,20.5274c-3.9318,0-6.2812-2.451-6.2812-6.5539,0-3.186,1.716-6.9065,6.5539-6.9065,3.9344,0,6.2838,2.451,6.2838,6.5525,0,3.1874-1.716,6.9079-6.5565,6.9079Zm.163-11.9716c-.7591,0-1.3738,.1964-1.8228,.5853-1.0372,.8674-1.561,2.4484-1.561,4.6949,0,.8686,.1604,5.2026,3.3331,5.2026,.7564,0,1.3738-.1991,1.8282-.5853,1.0317-.8674,1.5556-2.4484,1.5556-4.6963,0-.8686-.1603-5.2012-3.333-5.2012Z" style="fill:#8c1515;"/><path d="M112.9197,20.3109v-.6522l.2512-.0213c.2191-.0134,.7698-.0989,1.1467-.5319,.4008-.4437,.4168-1.5034,.4168-3.6992v-3.6832c0-1.585-.0213-2.2639-.2485-2.6086-.2647-.3796-.8446-.4197-1.1573-.4424-.0374-.0014-.0749-.0067-.1015-.0079l-.2512-.0255v-.7805l.2779,.0053c.0482,.004,.131,.0053,.2112,.0053,.401,0,1.3391-.0494,2.3281-.2432,.6254-.1043,1.1653-.2647,1.3818-.3676l.1497-.0668,.2272,.1189v1.12c.6175-.5827,1.5958-1.2002,2.9803-1.2002,.9007,0,1.6277,.2406,2.1569,.7176l.0883,.0816v.4063l-1.0852,1.9886h-.5211l-.0802-.1256c-.302-.4731-.9061-1.037-2.0768-1.037-.5345,0-.9969,.1336-1.4059,.4089v6.495c0,1.7013,.0561,2.5045,.2779,2.8359,.3635,.5399,1.454,.5826,1.7774,.5826h.27v.7137l-.2834-.016c-1.4165-.0735-2.4751-.1069-3.2368-.1069-.9569,0-2.0421,0-3.1941,.1069l-.2993,.0294Z" style="fill:#8c1515;"/><path d="M133.1799,20.49l-.3449-.115v-1.0852c-.6388,.4731-1.9058,1.2081-3.6004,1.2081-3.5388,0-5.8268-2.4537-5.8268-6.2544,0-1.2602,.2486-2.459,.7057-3.4694,1.0771-2.3386,3.3223-3.6791,6.1474-3.6791,1.0372,0,1.9646,.1282,2.5179,.2471v-2.7396c0-1.6063-.0213-2.4616-.2513-2.8079-.2619-.3755-.8259-.4182-1.1306-.4409-.0401-.0014-.0749-.0041-.1041-.0081l-.2433-.0241,.0561-.5786h.2727c.0614,0,1.5502-.123,2.7609-.3609,.5078-.0828,1.0104-.1965,1.2723-.2927l.1284-.048,.2218,.1323-.0107,.1256c-.0855,1.0624-.0989,3.333-.0989,5.0343V15.8406c0,1.5703,.0213,2.5418,.2485,2.8545,.2674,.3836,.8286,.4478,1.1334,.4719,.0401,.0012,.0775,.0026,.1069,.0079l.2432,.0094v.6922h-.2699c-.2888,0-1.4139,.0788-2.5019,.266-.6254,.1015-1.0878,.1924-1.315,.2966l-.1176,.0509Zm-2.975-11.8514c-2.5098,0-3.7365,1.7187-3.7365,5.2535,0,1.4325,.4062,4.7643,4.1482,4.7643h.1203c.4543,0,1.3017-.0668,2.0421-.5252V9.5006c-.2112-.2086-.9916-.862-2.574-.862Z" style="fill:#8c1515;"/></g><g><path d="M29.3009,1.7319H1.4977C.8021,3.3547-.7539,9.6952,.4327,16.9883c.0325,.2001,.072,.4023,.1087,.6038,1.2702,6.9602,5.0986,14.6777,14.556,19.9611,.1032,.0577,.1971,.1193,.3017,.1764,.1045-.057,.1984-.1187,.3016-.1763C35.4094,26.5433,30.6738,4.9375,29.3009,1.7319Z" style="fill:#8c1515;"/><path d="M15.0975,1.7319v15.2564H.4327c.0325,.2001,.072,.4023,.1087,.6038H15.0975v19.9611c.1032,.0577,.1971,.1193,.3017,.1764,.1045-.057,.1984-.1187,.3016-.1763V1.7319h-.6033Z" style="fill:#fff;"/><path d="M7.8014,4.5613l.0072,.4296c.2865-.2318,.702-.416,1.0326-.4839-.1823,.8236-.5869,1.0329-1.0263,1.1083l-.0164,.6928c.3584-.2885,.9003-.6779,1.3134-.7621-.2335,1.0455-.7394,1.4268-1.299,1.5074l.0021,.6817c.4457-.2876,1.1496-.7935,1.6656-.8779-.2958,1.0613-.9525,1.4803-1.6638,1.5464l.0012,.6275c.4465-.2885,1.1465-.7402,1.6625-.8228-.2844,1.0257-.9766,1.6473-1.6609,1.743l.0009,.5313c.4465-.289,1.144-.7397,1.66-.8223-.27,1.0739-.9533,1.6523-1.6676,1.7141v.4347c.538-.3173,1.4167-.8697,2.0371-.9626-.353,1.1537-1.188,1.7803-2.035,1.86v.497c.2856-.231,.8923-.4809,1.2232-.547-.1758,.7876-.8106,1.0574-1.2296,1.1608l-.0021,.9303c.0996-.003,.197-.0207,.297-.0326-.028-.3227,.161-.6549,.58-.9219,.0191,.247-.1229,.6088-.2026,.8528,.2263-.0507,.4487-.1134,.6733-.2097-.1203-.4715,.0369-1.1168,.5767-1.6637,.1004,.3635,.0076,.9584-.0416,1.3524,.2372-.1449,.4779-.303,.7084-.5042-.2593-.447-.2118-1.1413,.2932-1.8387,.1482,.3418,.1559,1.0023,.1614,1.3997,.2038-.2165,.4254-.4643,.622-.7274-.3567-.4339-.369-.8542,.0551-1.6977,.1483,.342,.2834,.8554,.289,1.2545,.1843-.2368,.3144-.4359,.4698-.7206-.0923-.2186-.0479-.3834,.0636-.5254,.1563-.197,.3931-.3665,.602-.2368,.2941,.1339,.1467,.4558,.0441,.6918-.0741,.167-.1979,.2802-.4178,.275-.1483,.2686-.3626,.5614-.5473,.7961,.4279,.1351,.7287,.2352,1.0151,.527-.6274,.2619-1.0045,.1996-1.3184-.061-.203,.2708-.4996,.563-.7117,.786,.413,.1283,.6845,.2436,1.0227,.5867-.6872,.2873-1.1948,.1975-1.499-.1262-.2386,.2042-.4668,.4156-.713,.5601,.4059,.2072,.7003,.4275,.9456,.7648-.7829,.1787-1.2973-.0432-1.5257-.4813-.2313,.0936-.4478,.172-.6825,.2164,.2237,.192,.3758,.3398,.4872,.5898-.536-.0136-.8401-.139-.9194-.4682-.1084,.0098-.216,.0823-.325,.0814v1.0469l-.6588-.2932v-.7681c-.0664-.0056-.2228-.0594-.2872-.0708-.0958,.3105-.3312,.4313-.8456,.4432,.1143-.2547,.1749-.4347,.4347-.5694-.2386-.0606-.4593-.1758-.6937-.2834-.2037,.4863-.6647,.6905-1.4921,.5016,.2437-.3389,.5479-.6419,.9618-.7826-.2118-.1309-.4063-.2644-.616-.4668-.3008,.3384-.8131,.4545-1.5147,.163,.2873-.2936,.5737-.5257,1.0101-.6092-.2199-.2182-.4232-.483-.6317-.7477-.3144,.2754-.7859,.3652-1.4295,.0953,.2882-.2932,.6169-.6037,1.0308-.599-.1271-.18-.2381-.3851-.3707-.5936-.1365-.0038-.2542-.0008-.394-.1783-.153-.1953-.2966-.6143-.0424-.7465,.1555-.1352,.5195,.0623,.641,.2826,.1098,.1999,.0699,.3202,.0297,.4605,.1288,.2012,.2732,.4012,.4033,.5804-.0894-.5783,.0733-1.0575,.2229-1.3985,.5185,.7198,.4228,1.3418,.1335,1.784,.2156,.2648,.3965,.4635,.6101,.68-.0619-.4055-.0123-1.018,.136-1.36,.4831,.6656,.5487,1.3478,.3284,1.7964,.2025,.1715,.3914,.3342,.5923,.4618-.1098-.3821-.1589-1.0151-.0585-1.3795,.5453,.5542,.7143,1.182,.5872,1.6557,.2321,.1072,.4567,.1984,.6898,.2525-.1102-.2267-.2169-.6127-.198-.8579,.4089,.2601,.5127,.563,.495,.8816,.0652,.0068,.2389,.0852,.3011,.0882l-.0148-.9186c-.4024-.1034-1.0096-.3368-1.2091-1.1159,.3774,.0894,.8609,.1813,1.2091,.4922v-.4855c-.8143-.0686-1.6366-.6461-2.0425-1.8001,.7084,.1221,1.3892,.4597,2.0425,.8859l.0009-.4262c-.7109-.0529-1.3833-.7126-1.685-1.6523,.5907,.1111,1.1393,.3784,1.6841,.7673v-.5372c-.6677-.0737-1.3506-.6401-1.6841-1.6811,.5907,.1114,1.1393,.3639,1.6841,.7524v-.5999c-.6884-.0492-1.3405-.4335-1.6841-1.5032,.5907,.1111,1.1393,.4194,1.6841,.808v-.6681c-.5427-.0619-1.054-.3966-1.3247-1.4516,.4724,.1115,.8897,.3135,1.3247,.7029l.0009-.6944c-.4178-.0737-.8042-.2411-1.0143-1.0571,.2847,.0657,.6299,.081,1.0167,.4257l-.0059-.4177c-.3173-.4694-.2474-.6766-.2101-1.0499,.0364-.3398,.1614-.5901,.5274-.6071,.3648,.017,.4894,.2673,.527,.6071,.0377,.3733,.1077,.5805-.2088,1.0499" style="fill:#fff;"/><g><path d="M23.2891,13.1473c.2131-2.6344,.6029-3.3521,1.2476-3.8884l.0971-.0805-.2661-1.7527-.2237,.0367c-.2928,.0479-.5661,.2716-.7804,.5143l-.0025-1.2968-1.957-1.1571,.0013,.9748c-.1504-.1444-.2817-.2541-.3389-.2965-.1983-.1462-.3745-.2143-.5542-.2143-.1063,0-.1991,.0237-.2809,.0448-.1393,.0369-.2343,.0662-.4385-.0211-.8884-.1792-1.5761,.0187-1.9561,.5554-.3567,.5038-.4139,1.2825-.1495,2.032,.1699,.4817,.4804,1.0329,.9228,1.637,.1783,.2449,1.737,1.8879,2.0819,2.2399,.2283,.2327,.4723,.4631,.7215,.6919l.0004,.5973-.3927-.2669-.5199,1.2028,.1631,.1017c.3607,.225,.739,.8507,.9999,4.1385-.9439,.3914-2.1488,1.5061-2.1823,2.6512-.0161,.5487,.2436,1.3109,1.5955,1.8404,.2597,.1013,.541,.211,.8207,.325,.0173,.625,.033,1.2961,.0462,2.0137-.2703,.1221-.7172,.3995-.8033,.7949-.0766,.3553,.1415,.6999,.6491,1.0249,.0585,.0381,.1203,.061,.1826,.0847,.0021,.1994,.0038,.4104,.006,.6168-.2123,.1042-.3249,.1817-.4894,.369-.0912,.1034-.1759,.2149-.1276,.3207,.0127,.0272,.053,.0924,.1567,.0924,.0707,0,.172-.0297,.3623-.1068,.05-.0203,.0923-.0356,.1283-.0474,.0967,.2355,.3102,.3867,.5542,.3867,.2619,0,.4771-.1749,.5347-.4376l.0056-.0245v-.025c-.0009-.0898-.0013-.1738-.0021-.2626,.1864-.1259,.299-.3216,.3084-.5533,.011-.2649-.1127-.5216-.3173-.7152-.0022-.297-.0034-.5782-.0051-.8651,.8668-.2013,1.7573-.766,1.8413-1.5159,.052-.4665-.1974-1.1486-1.6837-1.7493-.0588-.0237-.113-.0466-.1703-.0703-.0017-1.2542,.0013-2.3866,.0089-3.4144,1.5401-.7808,2.5899-1.5121,2.7242-2.4899,.1402-1.0197-.6961-2.2268-2.5187-4.0359Zm-2.3162-2.1755c-2.4064-2.1815-2.5081-3.1768-2.3539-3.5754,.1791-.4652,.7961-.4804,.9215-.45,.0759,.0166,.0796,.0313,.1034,.1284,.0376,.1542,.0944,.3876,.5567,.5398,.5143,.1703,.9088,.2652,1.2066,.2935l.0038,3.4631c-.1435-.1313-.2868-.2622-.4381-.3994Zm2.8755,13.9955c-.0051,.0982-.1203,.2868-.7661,.5012-.0021-.403-.0034-.7982-.005-1.1796,.461,.2415,.7813,.4784,.7711,.6784Zm-.9342-18.0319l.0021,.9787-.5453-.1453-.2834-.1449c.0331-.1784-.0746-.4034-.2344-.6229l-.0007-.6939,1.0617,.6282Zm-2.2134,14.69c-.0368-.3047,.2852-.6969,1.058-1.2846,.0376,.6567,.0716,1.3956,.1008,2.2218-.6757-.3233-1.1205-.6262-1.1588-.9372Zm1.6503,2.3218c.0945,.0406,.1877,.0817,.2784,.124,.0025,.9181,.0071,1.893,.0139,2.9344-.0772-.0424-.1649-.1017-.2347-.1729-.0149-1.0504-.0344-2.0099-.0577-2.8856Zm.0797,4.8264c-.003-.3335-.0064-.6563-.0099-.9745,.0983,.0263,.175,.0594,.2284,.1178,.0022,.2911,.0039,.5762,.0065,.8753-.0302,.0869-.1547,.1114-.225-.0187Zm.196-5.8704c-.1063-.0449-.2113-.089-.3117-.1334-.2343-6.8816-.7516-7.8642-1.2529-8.2399l.1551-.3588,.6448,.4368-.0013-1.0371c.0776,.0694,.1555,.141,.2322,.2101,.2284,.2034,.4538,.405,.6707,.6046-.1009,1.9552-.1403,4.6764-.137,8.5178Zm.2517-10.1574c-.3143-.3034-.6546-.6241-1.0197-.9621l-.0047-3.9054c.0411-.0144,.0758-.0334,.1064-.0559l.28,.1359,.3788,.6047,.1178-.0373-.0233-.3837,.2029-.0412,.0009,.5903,.4245,.0982c.1063-.2157,.3835-.6106,.6596-.7931l.1526,1.0019c-.6499,.575-1.0486,1.3349-1.2757,3.7478Zm1.6031,4.2617c-.0808,.4944-.5377,.9328-1.3845,1.3367,.0187-1.4002,.0483-2.5742,.0928-3.5563,.8156,.7944,1.4024,1.5447,1.2917,2.2197Z" style="fill:#fff;"/><path d="M20.3667,7.0253c-.0382-.0199-.0802-.0305-.1222-.0305-.0715,0-.1312,.0309-.1592,.0835-.0478,.0885,0,.2021,.1115,.2639,.0406,.0221,.0843,.0335,.1267,.0335,.0694,0,.1267-.0313,.1576-.0885,.0432-.0881-.0072-.2034-.1143-.2618Z" style="fill:#8c1515;"/><path d="M20.7585,6.3419c-.0461-.0437-.1071-.0686-.1677-.0686-.0483,0-.0894,.0165-.1144,.0445-.0296,.0297-.0458,.0708-.0449,.1162,.0012,.0593,.0322,.1232,.083,.1694,.0479,.0454,.108,.0707,.1652,.0707,.0478,0,.0902-.0173,.1194-.0491,.0293-.0309,.0441-.0729,.0423-.1178-.0025-.0594-.033-.1194-.083-.1652Z" style="fill:#8c1515;"/></g><path d="M11.5598,23.4281l-.0017-3.2733H5.7492v5.8077h1.7939v3.2753h5.808v-5.8097h-1.7913Zm-1.7193-2.5344h.9507v2.4298h-.9507v-2.4298Zm.9753,5.0688v.7389h-.7389v-.7389h.7389Zm-4.1969-5.0688h2.4293v.9507h-2.4293v-.9507Zm.9241,4.33h-.9496v-2.4285h.9496v2.4285Zm.7392-2.5352h.738v.7397h-.738v-.7397Zm.0797,1.5836h2.4294v.9507h-2.4294v-.9507Zm.9766,4.1215h-.9507v-2.431h.9507v2.431Zm3.1415-.0271h-2.4284v-.9515h2.4284v.9515Zm.0263-1.6904h-.9496v-2.4284h.9496v2.4284Z" style="fill:#fff;"/></g></g></svg>