<svg width="287" height="40" viewBox="0 0 287 40" fill="none" xmlns="http://www.w3.org/2000/svg">
<path d="M42.4512 14.8073L48.1287 28.5464L53.6646 14.8073H57.6387V32.807H54.516V18.7328L49.2643 31.8976H46.473L41.2213 18.7328V32.807H38.4297V14.8073H42.4512Z" fill="#003A96"/>
<path fill-rule="evenodd" clip-rule="evenodd" d="M65.3748 19.4509C62.8199 19.4509 61.2112 20.0254 61.2112 20.0254V22.4667H61.4003C61.4003 22.4667 63.0564 21.7965 64.9254 21.7965C66.2026 21.7965 66.8414 22.1078 67.2199 22.6582C67.5984 23.2327 67.5984 23.7592 67.5984 24.8603C67.5984 24.8603 67.1252 24.8125 66.3682 24.8125C62.252 24.8125 59.9336 26.2007 59.9336 29.049C59.9336 31.4186 61.5423 32.9985 64.0972 32.9985C65.9897 32.9985 67.4563 32.1368 67.9296 30.6049C68.119 32.3761 69.1598 32.9505 70.8155 32.9505C71.762 32.9505 72.4716 32.759 72.4716 32.759V30.5571C72.4716 30.5571 72.1405 30.6527 71.7855 30.6527C70.6738 30.6527 70.6738 29.6715 70.6738 29.1208V24.6211C70.6738 23.4242 70.6738 22.0838 69.9642 21.0784C69.0651 19.7859 67.3146 19.4509 65.3748 19.4509ZM67.1726 29.4082C66.7467 30.2219 65.895 30.6527 64.9724 30.6527C63.766 30.6527 63.1511 29.9347 63.1511 28.8815C63.1511 26.823 65.5164 26.823 66.8888 26.823H67.5984V27.1104C67.5984 27.6369 67.5984 28.5943 67.1726 29.4082Z" fill="#003A96"/>
<path d="M82.5034 22.4667H82.3139C82.3139 22.4667 80.6582 21.7965 79.1916 21.7965C77.8666 21.7965 77.2517 22.3232 77.2517 22.9932C77.2517 25.0278 83.1183 24.4296 83.1183 28.9773C83.1183 31.7778 80.9185 32.9985 77.7957 32.9985C75.5482 32.9985 74.1289 32.3761 74.1289 32.3761V29.839H74.3184C74.3184 29.839 76.3052 30.6527 77.9613 30.6527C79.3806 30.6527 79.9959 30.0782 79.9959 29.3123C79.9959 26.9427 74.1289 27.6369 74.1289 23.3524C74.1289 20.9588 75.9741 19.4509 79.2624 19.4509C81.1076 19.4509 82.5034 19.9294 82.5034 19.9294V22.4667Z" fill="#003A96"/>
<path d="M93.3858 22.4667H93.1968C93.1968 22.4667 91.5407 21.7965 90.074 21.7965C88.7494 21.7965 88.1341 22.3232 88.1341 22.9932C88.1341 25.0278 94.0011 24.4296 94.0011 28.9773C94.0011 31.7778 91.8009 32.9985 88.6782 32.9985C86.431 32.9985 85.0117 32.3761 85.0117 32.3761V29.839H85.2008C85.2008 29.839 87.188 30.6527 88.8438 30.6527C90.2634 30.6527 90.8784 30.0782 90.8784 29.3123C90.8784 26.9427 85.0117 27.6369 85.0117 23.3524C85.0117 20.9588 86.8569 19.4509 90.1448 19.4509C91.9904 19.4509 93.3858 19.9294 93.3858 19.9294V22.4667Z" fill="#003A96"/>
<path d="M115.55 23.2807V32.0891C115.55 32.0891 113.232 33.0465 110.086 33.0465C104.621 33.0465 100.883 30.1742 100.883 23.9507C100.883 17.5839 104.81 14.6158 110.488 14.6158C113.09 14.6158 114.982 15.2382 114.982 15.2382V17.7753H114.793C114.793 17.7753 112.948 17.0094 110.582 17.0094C106.655 17.0094 104.242 19.1157 104.242 23.7592C104.242 28.4028 106.655 30.6527 110.109 30.6527C111.434 30.6527 112.427 30.3177 112.427 30.3177V25.6741H109.257V23.2807H115.55Z" fill="#003A96"/>
<path fill-rule="evenodd" clip-rule="evenodd" d="M124.683 32.9985C127.026 32.9985 128.799 32.424 128.799 32.424V29.9827H128.61C128.61 29.9827 126.718 30.7007 124.92 30.7007C122.46 30.7007 121.182 29.3603 121.182 27.1104H129.556C129.556 25.0518 129.556 23.0892 128.658 21.6051C127.759 20.1209 126.15 19.3072 124.021 19.3072C120.141 19.3072 117.965 22.0358 117.965 26.3205C117.965 28.4986 118.533 30.2219 119.715 31.3709C120.709 32.3283 122.176 32.9985 124.683 32.9985ZM123.926 21.5093C125.724 21.5093 126.387 22.754 126.387 24.9561H121.182C121.371 22.8257 122.105 21.5093 123.926 21.5093Z" fill="#003A96"/>
<path d="M134.597 19.6424L135.164 21.8923C135.59 20.3604 136.773 19.355 139.021 19.355C141.031 19.355 142.167 20.1689 142.782 21.0784C143.539 22.1795 143.539 23.4722 143.539 25.0518V32.807H140.416V25.0041C140.416 24.2381 140.416 23.4722 139.99 22.8497C139.565 22.2273 138.949 21.8923 137.932 21.8923C135.59 21.8923 135.306 23.7114 135.306 24.7646V32.807H132.184V19.6424H134.597V19.6424Z" fill="#003A96"/>
<path fill-rule="evenodd" clip-rule="evenodd" d="M152.644 32.9985C154.986 32.9985 156.76 32.424 156.76 32.424V29.9827H156.571C156.571 29.9827 154.679 30.7007 152.881 30.7007C150.42 30.7007 149.143 29.3603 149.143 27.1104H157.517C157.517 25.0518 157.517 23.0892 156.619 21.6051C155.72 20.1209 154.111 19.3072 151.982 19.3072C148.102 19.3072 145.926 22.0358 145.926 26.3205C145.926 28.4986 146.494 30.2219 147.676 31.3709C148.67 32.3283 150.137 32.9985 152.644 32.9985ZM151.887 21.5093C153.685 21.5093 154.348 22.754 154.348 24.9561H149.143C149.332 22.8257 150.066 21.5093 151.887 21.5093Z" fill="#003A96"/>
<path d="M167.431 22.4668C167.431 22.4668 166.792 22.3232 166.059 22.3232C163.267 22.3232 163.267 24.4056 163.267 25.4348V32.807H160.145V19.6424H162.51L163.125 22.2273C163.598 20.0254 165.207 19.4987 167.1 19.4987H167.431V22.4668Z" fill="#003A96"/>
<path fill-rule="evenodd" clip-rule="evenodd" d="M173.628 19.4509C171.073 19.4509 169.465 20.0254 169.465 20.0254V22.4667H169.654C169.654 22.4667 171.31 21.7965 173.179 21.7965C174.457 21.7965 175.095 22.1078 175.473 22.6582C175.852 23.2327 175.852 23.7592 175.852 24.8603C175.852 24.8603 175.379 24.8125 174.622 24.8125C170.506 24.8125 168.188 26.2007 168.188 29.049C168.188 31.4186 169.796 32.9985 172.351 32.9985C174.244 32.9985 175.71 32.1368 176.183 30.6049C176.373 32.3761 177.413 32.9505 179.069 32.9505C180.016 32.9505 180.726 32.759 180.726 32.759V30.5571C180.726 30.5571 180.394 30.6527 180.039 30.6527C178.927 30.6527 178.927 29.6715 178.927 29.1208V24.6211C178.927 23.4242 178.927 22.0838 178.218 21.0784C177.319 19.7859 175.568 19.4509 173.628 19.4509ZM175.426 29.4082C175.001 30.2219 174.149 30.6527 173.226 30.6527C172.02 30.6527 171.405 29.9347 171.405 28.8815C171.405 26.823 173.77 26.823 175.142 26.823H175.852V27.1104C175.852 27.6369 175.852 28.5943 175.426 29.4082Z" fill="#003A96"/>
<path d="M185.766 14.1371V22.2273V32.807H182.691V14.1371H185.766Z" fill="#003A96"/>
<path fill-rule="evenodd" clip-rule="evenodd" d="M200.244 14.8073C201.617 14.8073 203.131 14.8073 204.408 15.5733C205.496 16.2195 206.348 17.3446 206.348 19.2355C206.348 22.8258 203.225 23.1847 203.225 23.1847C203.225 23.1847 207.389 23.3762 207.389 27.6369C207.389 29.6953 206.443 30.9879 205.165 31.8016C203.604 32.807 201.806 32.807 200.339 32.807H194.52V14.8073H200.244ZM197.642 22.2273H199.819C200.529 22.2273 201.262 22.2273 201.948 21.8443C202.61 21.4614 203.083 20.7914 203.083 19.6902C203.083 18.5891 202.61 17.8711 201.948 17.4881C201.262 17.1051 200.529 17.1051 199.819 17.1051H197.642V22.2273ZM200.197 30.5092H197.642V24.6689H200.197C201.001 24.6689 201.924 24.6689 202.847 25.1955C203.675 25.6741 204.124 26.44 204.124 27.5889C204.124 28.7379 203.675 29.5038 202.847 29.9827C201.924 30.5092 201.001 30.5092 200.197 30.5092Z" fill="#003A96"/>
<path d="M217.063 22.4668C217.063 22.4668 216.425 22.3232 215.691 22.3232C212.9 22.3232 212.9 24.4056 212.9 25.4348V32.807H209.777V19.6424H212.143L212.758 22.2273C213.231 20.0254 214.84 19.4987 216.732 19.4987H217.063V22.4668Z" fill="#003A96"/>
<path fill-rule="evenodd" clip-rule="evenodd" d="M220.471 17.7753C221.583 17.7753 222.34 16.9616 222.34 15.9082C222.34 14.8553 221.583 14.0414 220.471 14.0414C219.359 14.0414 218.602 14.8553 218.602 15.9082C218.602 16.9616 219.359 17.7753 220.471 17.7753ZM222.008 22.2273V19.6424H218.933V32.807H222.008V22.2273Z" fill="#003A96"/>
<path fill-rule="evenodd" clip-rule="evenodd" d="M230.29 27.8284C229.651 27.8284 229.059 27.7804 228.515 27.6609C228.208 27.8284 227.829 28.1396 227.829 28.7378C227.829 29.7432 228.87 29.7432 229.58 29.7432H231.804C233.412 29.7432 236.913 29.7432 236.913 33.2857C236.913 36.158 234.642 37.6899 229.887 37.6899C225.724 37.6899 223.902 36.517 223.902 34.5064C223.902 32.2773 226.126 31.9016 226.408 31.854C226.42 31.852 226.429 31.8506 226.433 31.8496C226.362 31.8256 224.754 31.2751 224.754 29.5997C224.754 27.9001 226.362 27.3497 227.19 27.1822C225.771 26.464 224.943 25.1955 224.943 23.5677C224.943 20.9828 227.025 19.3072 230.29 19.3072C231.898 19.3072 233.223 19.7142 234.145 20.4562C234.737 18.7805 236.109 18.7805 236.913 18.7805H237.197V21.3658C237.197 21.3658 236.724 21.2699 236.156 21.2699C235.541 21.2699 235.234 21.3896 235.068 21.4614C235.423 22.0598 235.636 22.778 235.636 23.5677C235.636 26.153 233.554 27.8284 230.29 27.8284ZM227.64 32.3283C227.64 32.3283 226.741 32.807 226.741 33.908C226.741 35.0569 227.734 35.5836 230.005 35.5836C232.513 35.5836 233.838 34.9614 233.838 33.7165C233.838 32.3761 232.229 32.3283 231.472 32.3283H227.64ZM230.29 21.5093C231.661 21.5093 232.466 22.2273 232.466 23.5677C232.466 24.9081 231.661 25.6263 230.29 25.6263C228.917 25.6263 228.113 24.9081 228.113 23.5677C228.113 22.2273 228.917 21.5093 230.29 21.5093Z" fill="#003A96"/>
<path d="M242.282 14.1371V21.7008C242.708 20.3124 243.749 19.355 245.973 19.355C248.007 19.355 249.143 20.1689 249.758 21.0784C250.515 22.1795 250.515 23.4721 250.515 25.0518V32.807H247.392V25.004C247.392 24.2381 247.392 23.4721 246.966 22.8497C246.54 22.2273 245.925 21.8923 244.908 21.8923C242.566 21.8923 242.282 23.7114 242.282 24.7646V32.807H239.207V14.1371H242.282Z" fill="#003A96"/>
<path fill-rule="evenodd" clip-rule="evenodd" d="M258.109 19.4509C255.554 19.4509 253.946 20.0254 253.946 20.0254V22.4667H254.135C254.135 22.4667 255.791 21.7965 257.66 21.7965C258.937 21.7965 259.576 22.1078 259.954 22.6582C260.333 23.2327 260.333 23.7592 260.333 24.8603C260.333 24.8603 259.86 24.8125 259.103 24.8125C254.986 24.8125 252.668 26.2007 252.668 29.049C252.668 31.4186 254.277 32.9985 256.832 32.9985C258.724 32.9985 260.191 32.1368 260.664 30.6049C260.853 32.3761 261.894 32.9505 263.55 32.9505C264.496 32.9505 265.206 32.759 265.206 32.759V30.5571C265.206 30.5571 264.875 30.6527 264.52 30.6527C263.408 30.6527 263.408 29.6715 263.408 29.1208V24.6211C263.408 23.4242 263.408 22.0838 262.699 21.0784C261.799 19.7859 260.049 19.4509 258.109 19.4509ZM259.907 29.4082C259.481 30.2219 258.629 30.6527 257.707 30.6527C256.5 30.6527 255.885 29.9347 255.885 28.8815C255.885 26.823 258.251 26.823 259.623 26.823H260.333V27.1104C260.333 27.6369 260.333 28.5943 259.907 29.4082Z" fill="#003A96"/>
<path d="M269.585 19.6424L270.153 21.8923C270.531 20.4084 271.619 19.355 273.914 19.355C276.161 19.355 277.297 20.3604 277.865 21.988C278.48 20.2169 279.663 19.355 281.65 19.355C283.684 19.355 284.773 20.2647 285.293 21.0784C286.002 22.1795 286.002 23.4722 286.002 25.0518V32.807H282.88V25.0041C282.88 24.2381 282.88 23.4722 282.502 22.8497C282.17 22.3232 281.602 21.8923 280.562 21.8923C278.432 21.8923 278.149 23.7114 278.149 24.7646V32.807H275.026V25.0041C275.026 24.2381 275.026 23.4722 274.647 22.8497C274.316 22.3232 273.749 21.8923 272.707 21.8923C270.578 21.8923 270.295 23.7114 270.295 24.7646V32.807H267.172V19.6424H269.585V19.6424Z" fill="#003A96"/>
<path d="M3.77246 14.9501H0V21.2786V27.0119H3.77246V14.9501Z" fill="#009CA6"/>
<path d="M8.10156 14.9501V21.2786V27.0119H11.874V14.9501H8.10156Z" fill="#009CA6"/>
<path d="M16.207 14.9501V21.2786V27.0119H19.9795V14.9501H16.207Z" fill="#009CA6"/>
<path d="M0 12.6912H14.0413H28.0827V9.29395H0V12.6912Z" fill="#009CA6"/>
<path d="M14.0413 0L0 4.62846V8.13684L14.0413 3.50838L28.0827 8.13684V4.62846L14.0413 0Z" fill="#009CA6"/>
<path d="M28.0827 26.7437C28.008 26.9478 26.647 29.2708 17.6817 29.2708L10.401 29.2708C1.20531 29.3405 0.175086 30.524 0 30.65V34.1214C0.175086 33.9953 1.20531 32.8118 10.401 32.7421L17.6817 32.7421C26.647 32.7421 28.008 30.4191 28.0827 30.215V26.7437Z" fill="#009CA6"/>
<path d="M28.0827 32.5293C28.008 32.7334 26.647 35.0564 17.6817 35.0564H10.401C1.20531 35.1261 0.175086 36.3096 0 36.4357V39.907C0.175086 39.7809 1.20531 38.5975 10.401 38.5277L17.6817 38.5277C26.647 38.5277 28.008 36.2047 28.0827 36.0006V32.5293Z" fill="#009CA6"/>
<path d="M24.3086 14.9501V26.3912C27.4014 25.688 28.031 24.6038 28.0809 24.4672V14.9501H24.3086Z" fill="#009CA6"/>
</svg>
